<svg width="227" height="32" viewBox="0 0 227 32" fill="none" xmlns="http://www.w3.org/2000/svg">
<path d="M19.5354 4.684L29.6514 29.632C29.7954 29.956 29.8314 30.28 29.7594 30.496C29.6874 30.676 29.5434 31.036 28.9674 31.036H25.1154C24.6114 31.036 24.2514 30.748 24.0714 30.244L15.1434 7.96C15.1074 7.888 15.1074 7.888 15.1074 7.888H14.9634C14.9634 7.888 14.9274 7.924 14.8914 7.996L10.2834 19.66H14.7474C15.2154 19.66 15.6114 19.948 15.7914 20.38L17.0874 23.584C17.1954 23.944 17.1594 24.34 16.9434 24.628C16.7634 24.952 16.4034 25.132 16.0074 25.132H8.12338L6.07138 30.28C5.89138 30.748 5.53138 31.036 5.06338 31.036H1.10338C0.527375 31.036 0.347375 30.712 0.311375 30.496C0.239375 30.28 0.275375 29.956 0.383375 29.632L10.4274 4.684C10.9314 3.388 11.4714 2.524 12.0114 2.056C12.1554 1.948 12.3354 1.804 12.5514 1.696C13.2714 1.192 14.1354 0.939999 15.0354 0.939999C17.0154 0.939999 18.7434 2.272 19.3194 4.144C19.3914 4.288 19.4634 4.504 19.5354 4.684ZM62.2755 1.336C62.5995 1.336 63.2835 1.444 63.2835 2.56V19.732C63.2835 21.748 63.1395 23.476 62.8155 24.88C62.4915 26.32 61.9875 27.508 61.2675 28.408C60.5475 29.344 59.6115 29.992 58.4595 30.424C57.3435 30.82 55.9755 31 54.3915 31H46.2915C44.7075 31 43.3395 30.82 42.2235 30.424C41.1075 29.992 40.1355 29.344 39.4515 28.408C38.7315 27.508 38.1915 26.32 37.8675 24.88C37.5435 23.476 37.3995 21.748 37.3995 19.732V2.56C37.3995 1.444 38.1195 1.336 38.4435 1.336H41.7195C42.0435 1.336 42.7275 1.444 42.7275 2.56V20.308C42.7275 21.388 42.7995 22.324 42.9075 23.008C43.0515 23.692 43.2675 24.232 43.5195 24.628C43.8075 24.988 44.1315 25.24 44.5995 25.42C45.0675 25.564 45.7155 25.672 46.4715 25.672H54.2475C55.0035 25.672 55.6515 25.564 56.1195 25.42C56.5875 25.24 56.9115 24.988 57.1995 24.628C57.4515 24.232 57.6675 23.692 57.7755 23.008C57.8835 22.324 57.9555 21.388 57.9555 20.308V2.56C57.9555 1.444 58.6395 1.336 58.9635 1.336H62.2755ZM87.8251 15.628L97.4731 29.416C97.6531 29.668 97.7611 29.956 97.6891 30.316C97.6531 30.748 97.3651 31 96.8971 31H92.7211C92.4331 31 92.1811 30.964 91.9651 30.856C91.7851 30.712 91.6051 30.532 91.4611 30.244L84.1891 19.948L76.8811 30.28C76.7371 30.532 76.5571 30.712 76.3771 30.82C76.1971 30.964 75.9451 31 75.6211 31H71.6611C71.2291 31 70.9411 30.748 70.8691 30.316C70.8331 29.956 70.9051 29.668 71.1211 29.416L81.0211 15.412L72.0931 2.92C71.9131 2.668 71.8411 2.344 71.8771 2.02C71.9131 1.588 72.2011 1.336 72.6691 1.336H76.8451C77.1331 1.336 77.4211 1.408 77.6011 1.516C77.7811 1.66 77.9611 1.84 78.1051 2.056L84.4771 11.272L91.2451 2.056C91.3891 1.84 91.5691 1.66 91.7491 1.516C91.9291 1.408 92.1811 1.336 92.5051 1.336H96.4651C96.9331 1.336 97.2211 1.588 97.2931 2.02C97.3291 2.344 97.2571 2.668 97.0411 2.92L87.8251 15.628ZM109.606 1.336C109.894 1.336 110.614 1.48 110.614 2.596V29.776C110.614 30.892 109.894 31.036 109.606 31.036H106.294C106.006 31.036 105.286 30.892 105.286 29.776V2.596C105.286 1.48 106.006 1.336 106.294 1.336H109.606ZM138.961 25.672C139.285 25.672 139.969 25.816 139.969 26.932V29.776C139.969 30.892 139.285 31.036 138.961 31.036H127.081C125.497 31.036 124.129 30.82 123.049 30.424C121.897 30.028 120.961 29.344 120.241 28.408C119.521 27.508 119.017 26.32 118.693 24.88C118.369 23.476 118.189 21.748 118.189 19.732V2.596C118.189 1.444 118.909 1.336 119.233 1.336H122.545C122.833 1.336 123.553 1.444 123.553 2.596V20.344C123.553 21.424 123.589 22.324 123.733 23.044C123.841 23.692 124.057 24.232 124.345 24.628C124.597 25.024 124.957 25.276 125.389 25.42C125.893 25.6 126.505 25.672 127.261 25.672H138.961ZM151.864 1.336C152.152 1.336 152.872 1.48 152.872 2.596V29.776C152.872 30.892 152.152 31.036 151.864 31.036H148.552C148.264 31.036 147.544 30.892 147.544 29.776V2.596C147.544 1.48 148.264 1.336 148.552 1.336H151.864ZM185.322 1.336C185.646 1.336 186.33 1.444 186.33 2.56V19.732C186.33 21.748 186.186 23.476 185.862 24.88C185.538 26.32 185.034 27.508 184.314 28.408C183.594 29.344 182.658 29.992 181.506 30.424C180.39 30.82 179.022 31 177.438 31H169.338C167.754 31 166.386 30.82 165.27 30.424C164.154 29.992 163.182 29.344 162.498 28.408C161.778 27.508 161.238 26.32 160.914 24.88C160.59 23.476 160.446 21.748 160.446 19.732V2.56C160.446 1.444 161.166 1.336 161.49 1.336H164.766C165.09 1.336 165.774 1.444 165.774 2.56V20.308C165.774 21.388 165.846 22.324 165.954 23.008C166.098 23.692 166.314 24.232 166.566 24.628C166.854 24.988 167.178 25.24 167.646 25.42C168.114 25.564 168.762 25.672 169.518 25.672H177.294C178.05 25.672 178.698 25.564 179.166 25.42C179.634 25.24 179.958 24.988 180.246 24.628C180.498 24.232 180.714 23.692 180.822 23.008C180.93 22.324 181.002 21.388 181.002 20.308V2.56C181.002 1.444 181.686 1.336 182.01 1.336H185.322ZM223.94 1.336C225.128 1.336 225.956 1.732 226.388 2.488C226.784 3.172 226.964 4.324 226.964 5.98V29.776C226.964 30.892 226.244 31.036 225.92 31.036H222.824C222.536 31.036 221.816 30.892 221.816 29.776V8.14C221.816 8.104 221.816 8.068 221.816 8.068H221.636C221.6 8.068 221.564 8.068 221.564 8.14L215.372 23.404C215.12 24.16 214.868 24.808 214.616 25.348C214.364 25.888 214.04 26.32 213.752 26.68C213.428 27.04 213.032 27.328 212.6 27.472C212.204 27.616 211.7 27.688 211.16 27.688H209.684C209.144 27.688 208.676 27.616 208.244 27.472C207.812 27.328 207.452 27.04 207.092 26.68C206.804 26.32 206.516 25.888 206.228 25.348C205.976 24.808 205.724 24.16 205.472 23.404L199.316 8.176C199.28 8.068 199.244 8.068 199.208 8.068H199.028C199.028 8.068 199.028 8.104 199.028 8.14V29.776C199.028 30.892 198.344 31.036 198.02 31.036H194.924C194.6 31.036 193.88 30.892 193.88 29.776V5.98C193.88 4.324 194.06 3.172 194.456 2.488C194.888 1.732 195.716 1.336 196.94 1.336H200.252C200.72 1.336 201.152 1.372 201.512 1.48C201.872 1.588 202.232 1.768 202.52 2.02C202.772 2.308 203.024 2.632 203.24 3.064C203.42 3.496 203.636 4.036 203.852 4.72L210.188 20.632C210.224 20.776 210.296 20.776 210.296 20.776H210.656C210.692 20.776 210.728 20.776 210.764 20.632L217.136 4.72C217.352 4.036 217.532 3.496 217.748 3.064C217.964 2.632 218.216 2.308 218.468 2.02C218.756 1.768 219.08 1.588 219.44 1.48C219.8 1.372 220.196 1.336 220.7 1.336H223.94Z" fill="white"/>
</svg>
