<svg width="50" height="50" viewBox="0 0 50 50" fill="none" xmlns="http://www.w3.org/2000/svg">
<g clip-path="url(#clip0_194_22)">
<path d="M25.75 0C25.875 10.1354 26.5729 15.8333 30.375 19.625C34.1771 23.4271 39.875 24.1146 50.0104 24.25C49.6146 11.0313 38.9687 0.385417 25.75 0Z" fill="black"/>
<path d="M19.6354 19.625C23.4375 15.8333 24.125 10.1354 24.25 0C11.0313 0.385417 0.385417 11.0313 0 24.25C10.1354 24.125 15.8333 23.4271 19.6354 19.625Z" fill="black"/>
<path d="M0.000651041 25.75C0.386068 38.9687 11.0319 49.6146 24.2507 50C24.1257 39.8646 23.4277 34.1667 19.6257 30.375C15.8236 26.5729 10.1257 25.8854 -0.00976562 25.75H0.000651041Z" fill="black"/>
<path d="M50.0007 25.75C39.8652 25.875 34.1673 26.5729 30.3652 30.375C26.5632 34.1771 25.8757 39.875 25.7402 50C38.959 49.6146 49.6048 38.9687 49.9902 25.75H50.0007Z" fill="black"/>
</g>
<defs>
<clipPath id="clip0_194_22">
<rect width="50" height="50" fill="white"/>
</clipPath>
</defs>
</svg>
