<svg width="254" height="124" viewBox="0 0 254 124" fill="none" xmlns="http://www.w3.org/2000/svg">
<g clip-path="url(#clip0_643_11)">
<path d="M15.633 20.1656C15.633 21.1164 15.4579 21.9402 15.1147 22.6335C14.768 23.3269 14.3218 23.9104 13.7691 24.3875C13.2199 24.8647 12.5986 25.2319 11.9053 25.4928C11.2153 25.7537 10.5151 25.915 9.80116 25.9802V27.7685H6.26226V25.9802H6.22793C5.157 25.8738 4.25082 25.6404 3.5094 25.2834C2.76455 24.9264 2.16043 24.4665 1.69018 23.9036C1.21993 23.3406 0.883542 22.6782 0.674159 21.9196C0.46821 21.161 0.365234 20.3269 0.365234 19.4173V12.1061C0.365234 11.1759 0.533428 10.3521 0.873245 9.63811C1.20963 8.92415 1.65928 8.3166 2.21535 7.81889C2.77485 7.32118 3.40642 6.9436 4.11695 6.68274C4.82404 6.42187 5.54144 6.29143 6.26226 6.29143V5.15527H9.80116L9.83549 6.29143C10.546 6.33605 11.2497 6.48708 11.943 6.74452C12.633 7.00539 13.2543 7.37953 13.8034 7.86694C14.3561 8.35779 14.7989 8.95505 15.1353 9.669C15.4682 10.3864 15.6364 11.2068 15.6364 12.137V20.1656H15.633ZM6.26226 9.15413C5.47279 9.26397 4.8515 9.53171 4.39498 9.96763C3.93503 10.4001 3.70505 11.0283 3.70505 11.8521V20.4917C3.70505 20.9036 3.78057 21.2674 3.93503 21.5798C4.08606 21.8921 4.28514 22.1599 4.52542 22.3761C4.76569 22.5923 5.03686 22.7605 5.34578 22.8807C5.65128 23.0008 5.95677 23.0695 6.26226 23.0935V9.15413ZM12.3584 11.8521C12.3584 11.0283 12.1147 10.3898 11.6272 9.93331C11.1433 9.48022 10.5357 9.21935 9.80116 9.15413L9.83549 23.0901C10.117 23.0454 10.4053 22.9596 10.7073 22.8292C11.0094 22.7022 11.284 22.5271 11.5311 22.3109C11.7783 22.0946 11.9774 21.8338 12.1284 21.5317C12.2794 21.2296 12.3549 20.883 12.3549 20.4917V11.8521H12.3584Z" fill="white"/>
<path d="M33.0658 21.9851C33.0658 23.9554 32.6195 25.4451 31.7271 26.4508C30.8347 27.4565 29.4308 27.9611 27.512 27.9611C25.5967 27.9611 24.1996 27.4805 23.3278 26.516C22.4559 25.5549 22.0234 24.1613 22.0234 22.3421V10.9737C22.0234 10.0881 22.1264 9.27458 22.3324 8.53659C22.5383 7.80204 22.8575 7.16702 23.2935 6.63842C23.7294 6.10638 24.3026 5.69449 25.0097 5.40616C25.7202 5.11439 26.5612 4.9668 27.5429 4.9668C28.5898 4.9668 29.4651 5.10066 30.1722 5.37183C30.8793 5.643 31.4456 6.03773 31.8713 6.55604C32.2969 7.07435 32.6024 7.70593 32.7877 8.44048C32.9731 9.17503 33.0658 10.0126 33.0658 10.9428V21.9851ZM29.5269 10.6819C29.5269 10.0538 29.3896 9.49082 29.1184 8.99311C28.8438 8.4954 28.3255 8.24483 27.5635 8.24483C27.1447 8.24483 26.8083 8.3375 26.5475 8.52286C26.2832 8.70821 26.0841 8.93476 25.9399 9.20593C25.7958 9.47709 25.6962 9.77915 25.6447 10.1155C25.5898 10.4519 25.5623 10.7608 25.5623 11.0423V22.4142C25.5623 22.9977 25.7099 23.5229 26.0051 23.9897C26.3003 24.4531 26.8083 24.6865 27.5292 24.6865C28.25 24.6865 28.7614 24.4428 29.0703 23.9554C29.3758 23.4679 29.5269 22.8776 29.5269 22.1842V10.6819Z" fill="white"/>
<path d="M47.3564 27.768V17.8928H43.2889V27.768H39.75V5.1582H43.2889V14.6113H47.3564V5.1582H50.8953V27.768H47.3564Z" fill="white"/>
<path d="M59.2489 27.7685V32.0591H56.2695V24.8475L57.6116 24.5557C58.2226 23.907 58.638 23.1518 58.8576 22.2971C59.0773 21.4424 59.2077 20.3097 59.2489 18.9024L59.6437 5.16211H69.8656V24.59H71.3073V32.0626H68.3279V27.772H59.2489V27.7685ZM62.4309 18.8784C62.3862 20.1758 62.3004 21.2948 62.1666 22.2353C62.0361 23.1758 61.7855 23.9584 61.4148 24.5866H66.3302V8.44014H62.6917L62.4309 18.8784Z" fill="white"/>
<path d="M92.5454 4.96289C93.4859 4.96289 94.2925 5.08989 94.9721 5.35076C95.6483 5.6082 96.2113 5.96861 96.6609 6.42856C97.1071 6.88852 97.4367 7.43772 97.6461 8.07273C97.852 8.70774 97.955 9.40454 97.955 10.1631L94.5122 11.0418C94.5122 10.2215 94.3543 9.5487 94.0419 9.0304C93.7262 8.50866 93.225 8.25122 92.5316 8.25122C92.1197 8.25122 91.7834 8.33703 91.5259 8.51209C91.265 8.68715 91.066 8.90683 90.9252 9.17799C90.7845 9.44916 90.685 9.74435 90.63 10.0567C90.5786 10.3725 90.5511 10.6677 90.5511 10.9526V22.4446C90.5511 22.6608 90.5717 22.8977 90.6163 23.1585C90.6575 23.4194 90.7502 23.6631 90.8943 23.8897C91.0351 24.1162 91.2307 24.3084 91.4779 24.4595C91.725 24.6139 92.0442 24.6894 92.439 24.6894C93.7399 24.6894 94.3989 23.7592 94.4195 21.8954C95.0099 22.0018 95.6003 22.0945 96.1907 22.17C96.7811 22.2455 97.3715 22.3279 97.9618 22.4137C97.9172 24.1231 97.4435 25.4789 96.5339 26.4743C95.6277 27.4732 94.2891 27.9709 92.5213 27.9709C90.6438 27.9709 89.257 27.5006 88.3612 26.5567C87.4653 25.6128 87.0156 24.2329 87.0156 22.4137V11.1345C87.0156 10.2901 87.1083 9.49378 87.2937 8.74893C87.479 8.00065 87.7914 7.34504 88.2307 6.78211C88.6666 6.21918 89.2364 5.77639 89.9504 5.4503C90.6506 5.12422 91.5156 4.96289 92.5454 4.96289Z" fill="white"/>
<path d="M114.798 21.9851C114.798 23.9554 114.348 25.4451 113.456 26.4508C112.563 27.4565 111.156 27.9611 109.241 27.9611C107.322 27.9611 105.928 27.4805 105.056 26.516C104.188 25.5549 103.752 24.1613 103.752 22.3421V10.9737C103.752 10.0881 103.855 9.27458 104.061 8.53659C104.27 7.80204 104.589 7.16702 105.025 6.63842C105.465 6.10638 106.035 5.69449 106.742 5.40616C107.449 5.11439 108.293 4.9668 109.271 4.9668C110.318 4.9668 111.194 5.10066 111.904 5.37183C112.611 5.643 113.178 6.03773 113.6 6.55604C114.025 7.07435 114.331 7.70593 114.516 8.44048C114.702 9.17503 114.794 10.0126 114.794 10.9428V21.9851H114.798ZM111.259 10.6819C111.259 10.0538 111.122 9.49082 110.847 8.99311C110.576 8.4954 110.057 8.24483 109.292 8.24483C108.877 8.24483 108.54 8.3375 108.276 8.52286C108.012 8.70821 107.809 8.93476 107.668 9.20593C107.524 9.47709 107.425 9.77915 107.37 10.1155C107.315 10.4519 107.291 10.7608 107.291 11.0423V22.4142C107.291 22.9977 107.438 23.5229 107.734 23.9897C108.029 24.4531 108.537 24.6865 109.258 24.6865C109.979 24.6865 110.49 24.4428 110.795 23.9554C111.101 23.4679 111.255 22.8776 111.255 22.1842V10.6819H111.259Z" fill="white"/>
<path d="M123.022 27.7685V32.0591H120.039V24.8475L121.385 24.5557C121.996 23.907 122.411 23.1518 122.631 22.2971C122.847 21.4424 122.981 20.3097 123.022 18.9024L123.413 5.16211H133.639V24.59H135.08V32.0626H132.097V27.772H123.022V27.7685ZM126.2 18.8784C126.156 20.1758 126.067 21.2948 125.936 22.2353C125.806 23.1758 125.555 23.9584 125.184 24.5866H130.1V8.44014H126.461L126.2 18.8784Z" fill="white"/>
<path d="M140.816 27.768V5.1582H150.942V8.43967H144.355V14.6113H150.088V17.958H144.355V24.4866H150.942V27.768H140.816Z" fill="white"/>
<path d="M164.771 13.6024L159.987 27.7649H156.578V5.15845H160.021V19.4857H160.151L164.902 5.15845H168.345V27.7683H164.871V13.6024H164.771ZM160.512 0.0234375C160.532 0.263712 160.604 0.503987 160.725 0.754559C160.845 1.00513 160.999 1.23511 161.185 1.45136C161.37 1.6676 161.583 1.84953 161.823 1.99026C162.063 2.13099 162.338 2.19964 162.64 2.19964C162.969 2.19964 163.258 2.13099 163.508 1.99026C163.762 1.84953 163.972 1.67103 164.15 1.45136C164.325 1.23511 164.459 1.00513 164.559 0.754559C164.655 0.503987 164.706 0.263712 164.706 0.0234375H167.294C167.25 0.479959 167.13 0.970806 166.931 1.50284C166.735 2.03145 166.443 2.51886 166.062 2.96509C165.678 3.40788 165.211 3.77516 164.651 4.07035C164.095 4.36211 163.423 4.50971 162.636 4.50971C161.785 4.50971 161.064 4.36554 160.474 4.07035C159.884 3.77859 159.403 3.40788 159.029 2.96509C158.658 2.51886 158.384 2.03145 158.212 1.50284C158.034 0.970806 157.937 0.479959 157.917 0.0234375H160.512Z" fill="white"/>
<path d="M180.402 4.96289C181.343 4.96289 182.153 5.08989 182.826 5.35076C183.502 5.6082 184.065 5.96861 184.514 6.42856C184.961 6.88852 185.29 7.43772 185.496 8.07273C185.706 8.70774 185.808 9.40454 185.808 10.1631L182.369 11.0418C182.369 10.2215 182.211 9.5487 181.899 9.0304C181.583 8.50866 181.079 8.25122 180.389 8.25122C179.977 8.25122 179.64 8.33703 179.383 8.51209C179.122 8.68715 178.919 8.90683 178.782 9.17799C178.641 9.44916 178.542 9.74435 178.49 10.0567C178.435 10.3725 178.408 10.6677 178.408 10.9526V22.4446C178.408 22.6608 178.429 22.8977 178.473 23.1585C178.514 23.4194 178.607 23.6631 178.748 23.8897C178.889 24.1162 179.084 24.3084 179.331 24.4595C179.582 24.6139 179.901 24.6894 180.289 24.6894C181.59 24.6894 182.249 23.7592 182.273 21.8954C182.863 22.0018 183.45 22.0945 184.044 22.17C184.635 22.2455 185.225 22.3279 185.812 22.4137C185.767 24.1231 185.294 25.4789 184.387 26.4743C183.481 27.4732 182.143 27.9709 180.375 27.9709C178.497 27.9709 177.107 27.5006 176.215 26.5567C175.319 25.6128 174.869 24.2329 174.869 22.4137V11.1345C174.869 10.2901 174.962 9.49378 175.147 8.74893C175.333 8.00065 175.641 7.34504 176.081 6.78211C176.517 6.21918 177.09 5.77639 177.8 5.4503C178.508 5.12422 179.376 4.96289 180.402 4.96289Z" fill="white"/>
<path d="M197.411 8.43967V27.768H193.872V8.43967H190.203V5.1582H201.081V8.43967H197.411Z" fill="white"/>
<path d="M214.68 15.9431C215.686 16.2658 216.376 16.8836 216.746 17.7932C217.121 18.7028 217.303 19.7394 217.303 20.9099C217.303 23.2715 216.795 25.0014 215.782 26.1101C214.762 27.2154 213.208 27.7646 211.11 27.7646H206.391V5.1582H211.371C213.383 5.1582 214.841 5.68337 215.751 6.73372C216.657 7.78406 217.11 9.30465 217.11 11.2955C217.11 12.3355 216.928 13.2452 216.571 14.0278C216.208 14.8069 215.579 15.3905 214.684 15.7818V15.9431H214.68ZM213.733 11.3642C213.733 10.3241 213.523 9.57582 213.111 9.12273C212.696 8.66964 212.006 8.43967 211.045 8.43967H209.933V14.2886H211.079C211.996 14.2886 212.665 14.0381 213.094 13.5404C213.516 13.0392 213.733 12.315 213.733 11.3642ZM213.925 20.6216C213.925 19.5609 213.733 18.7715 213.338 18.2497C212.943 17.7314 212.253 17.4706 211.272 17.4706H209.93V24.4866H211.337C211.903 24.4866 212.356 24.3836 212.696 24.1777C213.036 23.9717 213.297 23.6971 213.482 23.3504C213.668 23.0037 213.788 22.5918 213.846 22.1182C213.901 21.641 213.925 21.1399 213.925 20.6216Z" fill="white"/>
<path d="M231.983 13.6021L227.201 27.7646H223.793V5.1582H227.236V19.4854H227.366L232.117 5.1582H235.56V27.768H232.086V13.6021H231.983Z" fill="white"/>
<path d="M241.422 27.7685L242.699 20.5843C242.85 19.8257 243.094 19.1358 243.42 18.5214C243.746 17.9035 244.206 17.4195 244.796 17.0729C243.746 16.6404 243.028 15.9848 242.634 15.1095C242.242 14.2342 242.043 13.177 242.043 11.9447C242.043 9.71703 242.586 8.02824 243.667 6.88179C244.745 5.73533 246.227 5.16211 248.105 5.16211H253.315V27.7719H249.78V18.1232H248.864C248.253 18.1232 247.686 18.36 247.175 18.8406C246.66 19.3177 246.296 20.1621 246.076 21.3738L244.995 27.7719H241.422V27.7685ZM248.4 8.44014C247.333 8.44014 246.584 8.75936 246.155 9.39781C245.73 10.0362 245.52 10.8772 245.52 11.9138C245.52 13.0191 245.788 13.7811 246.323 14.2033C246.856 14.6255 247.542 14.8383 248.369 14.8383H249.777V8.44014H248.4Z" fill="white"/>
<path d="M11.0293 46.5887L5.09797 64.1528H0.869141V36.1162H5.13573V53.8794H5.30049L11.1907 36.1162H15.4572V64.1528H11.1529V46.5887H11.0293Z" fill="white"/>
<path d="M36.9134 64.1528V51.9091H31.8745V64.1528H27.4844V36.1162H31.8745V47.8382H36.9134V36.1162H41.3036V64.1528H36.9134Z" fill="white"/>
<path d="M62.8822 64.1528V51.9091H57.8399V64.1528H53.4531V36.1162H57.8399V47.8382H62.8822V36.1162H67.2689V64.1528H62.8822Z" fill="white"/>
<path d="M92.8714 56.9819C92.8714 59.4258 92.3188 61.2725 91.2067 62.522C90.1014 63.7714 88.3611 64.3927 85.979 64.3927C83.6037 64.3927 81.8772 63.7954 80.7959 62.6009C79.7147 61.4064 79.1758 59.6799 79.1758 57.4247V43.3274C79.1758 42.2256 79.3028 41.2199 79.5636 40.3069C79.8176 39.3938 80.2158 38.6078 80.7582 37.9487C81.2971 37.2897 82.0076 36.7817 82.8863 36.4178C83.7616 36.054 84.8085 35.8721 86.0236 35.8721C87.3211 35.8721 88.4092 36.0368 89.2879 36.3766C90.1632 36.713 90.8668 37.2004 91.3955 37.8458C91.9206 38.4911 92.2982 39.2702 92.5282 40.1833C92.7582 41.0963 92.8749 42.1295 92.8749 43.2828V56.9819H92.8714ZM88.4813 42.9636C88.4813 42.1844 88.3096 41.4876 87.9733 40.8698C87.6334 40.2519 86.9916 39.943 86.0442 39.943C85.5259 39.943 85.1106 40.0563 84.7845 40.2863C84.4584 40.5128 84.2078 40.7943 84.0328 41.1307C83.8543 41.467 83.7341 41.8412 83.6689 42.2599C83.6003 42.6753 83.5694 43.0597 83.5694 43.4098V57.5071C83.5694 58.2313 83.7513 58.8835 84.1151 59.4602C84.4824 60.0368 85.114 60.3252 86.0064 60.3252C86.9023 60.3252 87.5373 60.0231 87.9149 59.419C88.2925 58.8149 88.4847 58.0837 88.4847 57.2222V42.9636H88.4813Z" fill="white"/>
<path d="M115.138 49.4892C116.384 49.8942 117.238 50.6597 117.698 51.7855C118.158 52.9148 118.388 54.202 118.388 55.6505C118.388 58.5785 117.757 60.7272 116.5 62.0968C115.241 63.4663 113.312 64.1528 110.71 64.1528H104.857V36.1162H111.039C113.528 36.1162 115.337 36.7684 116.463 38.0693C117.585 39.3736 118.151 41.2581 118.151 43.7295C118.151 45.0201 117.925 46.146 117.479 47.1139C117.032 48.0819 116.253 48.8061 115.145 49.2901V49.4892H115.138ZM113.96 43.8084C113.96 42.5178 113.703 41.591 113.192 41.0281C112.677 40.4652 111.822 40.1837 110.631 40.1837H109.248V47.4331H110.669C111.808 47.4331 112.639 47.1242 113.171 46.5064C113.696 45.8885 113.96 44.9926 113.96 43.8084ZM114.204 55.2901C114.204 53.9755 113.96 52.9938 113.473 52.3485C112.986 51.7032 112.131 51.3805 110.912 51.3805H109.244V60.0819H110.991C111.695 60.0819 112.258 59.9549 112.677 59.6974C113.099 59.4434 113.421 59.1002 113.655 58.6711C113.885 58.2421 114.032 57.7306 114.101 57.1402C114.17 56.5533 114.204 55.9354 114.204 55.2901Z" fill="white"/>
<path d="M140.456 64.1528L139.357 58.3142H134.157C133.965 59.2787 133.783 60.2535 133.608 61.2318C133.433 62.2135 133.265 63.1883 133.1 64.1528H128.631C129.578 59.4537 130.526 54.7821 131.473 50.1345C132.42 45.4869 133.371 40.8153 134.319 36.1162H139.196L144.925 64.1528H140.456ZM136.635 42.6002C136.364 44.5327 136.079 46.4617 135.784 48.3805C135.482 50.2993 135.159 52.2558 134.806 54.2432H138.664L136.835 42.6002H136.635Z" fill="white"/>
<path d="M169.063 36.1157V60.0814H170.892V69.4659H167.233V64.1489H155.367V36.1123H159.757V60.078H164.673V36.1123H169.063V36.1157Z" fill="white"/>
<path d="M191.493 46.5887L185.561 64.1528H181.336V36.1162H185.603V53.8794H185.764L191.657 36.1162H195.924V64.1528H191.616V46.5887H191.493Z" fill="white"/>
<path d="M206.895 64.1528L208.48 55.2421C208.669 54.3016 208.968 53.4469 209.373 52.6814C209.781 51.916 210.351 51.3153 211.079 50.8862C209.781 50.3508 208.885 49.5373 208.398 48.4526C207.911 47.3645 207.667 46.0567 207.667 44.5258C207.667 41.7627 208.336 39.6688 209.675 38.2478C211.017 36.8267 212.853 36.1162 215.184 36.1162H221.644V64.1528H217.257V52.1871H216.121C215.359 52.1871 214.662 52.4823 214.027 53.0762C213.389 53.6666 212.936 54.7135 212.665 56.2203L211.322 64.1563H206.895V64.1528ZM215.551 40.1837C214.223 40.1837 213.293 40.5785 212.768 41.3714C212.239 42.1643 211.975 43.2009 211.975 44.4915C211.975 45.8611 212.308 46.8084 212.97 47.3302C213.633 47.8519 214.48 48.1162 215.51 48.1162H217.257V40.1837H215.551Z" fill="white"/>
<path d="M241.948 58.0293L239.923 52.8325L238.183 47.9172H237.977V64.1494H233.59V36.1128H237.856L240.922 44.0865L243.142 50.1689H243.345L245.621 43.9252L248.669 36.1094H252.891V64.146H248.504V47.9927H248.343L246.565 52.9869L244.581 58.0224H241.948V58.0293Z" fill="white"/>
<path d="M26.0975 72.665H0.978516C34.3801 108.013 82.1845 121.441 122.362 123.191C124.236 123.27 126.086 123.322 127.926 123.353C128.479 123.36 129.028 123.366 129.577 123.37C131.252 123.387 132.924 123.394 134.564 123.373C160.634 122.996 189.591 117.325 214.775 103.904C229.222 96.2016 242.434 85.9556 253.136 72.6685C253.136 72.6685 253.136 72.6685 253.133 72.6719C192.203 132.281 70.363 121.959 26.0975 72.665Z" fill="#EF2B2D"/>
<path d="M253.134 72.669C253.103 72.6861 253.076 72.7067 253.048 72.7273C252.094 73.3932 251.205 73.9939 250.367 74.55C249.884 74.8692 249.427 75.1713 248.977 75.4562C248.603 75.6999 248.219 75.9264 247.845 76.1667C246.581 76.9768 245.311 77.7834 244.031 78.5557C243.54 78.8509 243.046 79.1324 242.552 79.4241C241.244 80.1964 239.933 80.9584 238.611 81.6896C238.127 81.9573 237.64 82.2079 237.156 82.4722C235.81 83.1999 234.465 83.9207 233.105 84.6072C232.628 84.8475 232.144 85.074 231.667 85.3143C230.291 85.9973 228.914 86.6701 227.524 87.312C227.051 87.5317 226.573 87.7342 226.096 87.9504C224.692 88.5855 223.289 89.2102 221.874 89.8074C221.397 90.0065 220.917 90.1919 220.44 90.3875C219.019 90.971 217.597 91.5477 216.166 92.09C215.679 92.2754 215.188 92.447 214.7 92.6255C213.273 93.1541 211.841 93.6793 210.403 94.1701C209.902 94.3452 209.394 94.4996 208.893 94.6644C207.465 95.1381 206.033 95.6118 204.599 96.0511C204.073 96.2124 203.545 96.3532 203.02 96.5111C201.602 96.9298 200.181 97.3486 198.76 97.7331C198.2 97.8841 197.641 98.0145 197.081 98.1621C195.684 98.526 194.291 98.8898 192.89 99.2193C192.29 99.36 191.686 99.4836 191.085 99.6209C189.722 99.9298 188.359 100.239 186.997 100.517C186.348 100.647 185.699 100.757 185.047 100.884C183.729 101.138 182.411 101.396 181.093 101.622C180.365 101.746 179.638 101.845 178.91 101.962C177.667 102.161 176.425 102.367 175.182 102.539C174.345 102.659 173.511 102.744 172.673 102.851C171.54 102.995 170.408 103.15 169.275 103.273C168.231 103.386 167.191 103.469 166.151 103.565C165.228 103.651 164.301 103.75 163.378 103.822C161.411 103.977 159.451 104.1 157.494 104.196C157.491 104.196 157.488 104.196 157.488 104.196C156.341 104.251 155.198 104.296 154.059 104.33C154.038 104.33 154.021 104.334 154 104.334C152.874 104.368 151.755 104.392 150.633 104.406C150.595 104.406 150.557 104.406 150.52 104.409C149.421 104.423 148.323 104.426 147.228 104.423C147.163 104.423 147.101 104.42 147.039 104.42C145.968 104.413 144.897 104.399 143.83 104.375C143.751 104.375 143.672 104.371 143.593 104.368C142.543 104.344 141.496 104.313 140.449 104.272C140.353 104.269 140.256 104.265 140.157 104.258C139.131 104.217 138.108 104.166 137.088 104.107C136.972 104.1 136.858 104.093 136.742 104.083C135.743 104.025 134.747 103.96 133.755 103.884C133.611 103.874 133.467 103.86 133.319 103.85C132.355 103.774 131.394 103.695 130.436 103.606C130.275 103.592 130.113 103.572 129.952 103.558C129.015 103.469 128.078 103.373 127.148 103.27C126.962 103.249 126.777 103.225 126.592 103.204C125.686 103.101 124.779 102.995 123.877 102.875C123.678 102.851 123.478 102.823 123.279 102.796C122.397 102.679 121.519 102.559 120.643 102.429C120.42 102.394 120.2 102.36 119.977 102.326C119.13 102.195 118.282 102.065 117.437 101.924C117.194 101.883 116.953 101.838 116.71 101.797C115.889 101.656 115.072 101.516 114.259 101.361C113.998 101.313 113.744 101.262 113.483 101.214C112.69 101.063 111.901 100.908 111.115 100.747C110.833 100.688 110.555 100.627 110.274 100.568C109.515 100.41 108.76 100.249 108.008 100.077C107.706 100.009 107.408 99.9367 107.105 99.8681C106.378 99.6999 105.654 99.5317 104.933 99.3566C104.617 99.2777 104.305 99.1987 103.989 99.1163C103.289 98.9413 102.592 98.7662 101.898 98.5809C101.559 98.4916 101.226 98.3955 100.889 98.3028C100.227 98.1243 99.5608 97.9424 98.9052 97.7536C98.5517 97.6541 98.205 97.5477 97.8515 97.4413C97.2165 97.2559 96.5746 97.0671 95.9464 96.8715C95.5895 96.7617 95.2359 96.645 94.8789 96.5317C94.2611 96.336 93.6467 96.1404 93.0357 95.9379C92.665 95.8143 92.2977 95.6873 91.9304 95.5603C91.3435 95.3578 90.7531 95.1621 90.173 94.9527C89.7885 94.8189 89.411 94.6747 89.0265 94.534C88.467 94.328 87.9075 94.1289 87.3549 93.9161C86.9567 93.7651 86.5689 93.6106 86.1741 93.4562C85.6421 93.2468 85.11 93.0443 84.5849 92.8314C84.1798 92.6667 83.7851 92.4985 83.3835 92.3303C82.8755 92.1209 82.3675 91.9115 81.8663 91.6953C81.4544 91.5168 81.0494 91.3314 80.6409 91.153C80.1604 90.9401 79.673 90.7308 79.1993 90.5111C78.784 90.3189 78.3755 90.1232 77.9636 89.931C77.5036 89.7113 77.0403 89.5019 76.5872 89.2788C76.165 89.0729 75.7496 88.86 75.3309 88.6507C74.8984 88.4344 74.459 88.2216 74.0334 87.9985C73.6112 87.7788 73.1959 87.5557 72.7771 87.3326C72.3618 87.1129 71.943 86.8932 71.5311 86.6701C71.1089 86.4401 70.7004 86.2033 70.2851 85.9665C69.8904 85.7433 69.4888 85.5202 69.094 85.2937C68.6718 85.0465 68.2599 84.796 67.8446 84.5454C67.4705 84.3223 67.0895 84.0992 66.7187 83.8692C66.3034 83.6152 65.9018 83.3509 65.4933 83.0935C65.1295 82.8635 64.7657 82.6369 64.4087 82.4035C63.9865 82.1289 63.578 81.8475 63.1627 81.566C62.8297 81.3395 62.4933 81.1198 62.1638 80.8932C61.7382 80.598 61.3263 80.296 60.9075 79.9973C60.602 79.7777 60.2862 79.558 59.9842 79.3349C59.5723 79.0294 59.1673 78.717 58.7622 78.4081C58.467 78.1816 58.165 77.9584 57.8732 77.7319C57.4579 77.4058 57.0528 77.0729 56.6444 76.7399C56.3766 76.5202 56.0986 76.304 55.8343 76.0843C55.4018 75.7239 54.9865 75.3601 54.5643 74.9928C54.3343 74.7937 54.0975 74.598 53.8675 74.3955C53.2256 73.8257 52.594 73.2456 51.9762 72.6621H26.1055C70.3641 121.96 192.204 132.281 253.134 72.669Z" fill="#00A0DC"/>
<path d="M155.115 95.7696C154.642 95.7731 154.164 95.7731 153.694 95.7731C153.481 95.7731 153.275 95.7696 153.063 95.7696C152.373 95.7662 151.686 95.7628 151.003 95.749C150.629 95.7456 150.255 95.7353 149.881 95.7284C149.205 95.7147 148.535 95.6975 147.866 95.677C147.488 95.6667 147.114 95.6529 146.74 95.6358C146.081 95.6117 145.425 95.5843 144.773 95.55C144.396 95.5294 144.018 95.5088 143.64 95.4882C142.999 95.4538 142.36 95.4161 141.725 95.3715C141.344 95.3474 140.967 95.32 140.586 95.2925C139.964 95.2445 139.343 95.1998 138.725 95.1449C138.337 95.1106 137.953 95.0763 137.568 95.0419C136.964 94.9836 136.364 94.9287 135.766 94.8669C135.378 94.8257 134.994 94.7845 134.61 94.7433C134.026 94.6781 133.442 94.6129 132.862 94.5408C132.468 94.4927 132.076 94.4413 131.685 94.3898C131.122 94.3177 130.563 94.2422 130.007 94.1667C129.608 94.1083 129.214 94.05 128.815 93.9916C128.273 93.9127 127.731 93.8268 127.192 93.7445C126.794 93.6792 126.396 93.6106 125.997 93.5419C125.472 93.4527 124.95 93.3669 124.432 93.2708C124.027 93.1987 123.629 93.1198 123.227 93.0442C122.726 92.9481 122.222 92.852 121.724 92.7525C121.315 92.6701 120.914 92.5843 120.509 92.5019C120.028 92.3989 119.544 92.2994 119.067 92.193C118.655 92.1003 118.247 92.0042 117.838 91.9081C117.382 91.8017 116.922 91.6953 116.469 91.5854C116.05 91.4825 115.638 91.3795 115.223 91.2731C114.787 91.1598 114.351 91.05 113.922 90.9367C113.5 90.8234 113.088 90.7067 112.669 90.59C112.254 90.4767 111.838 90.36 111.426 90.2433C111.004 90.1198 110.592 89.9928 110.177 89.8692C109.779 89.749 109.381 89.6289 108.986 89.5053C108.567 89.3749 108.155 89.2376 107.74 89.1003C107.362 88.9767 106.978 88.8532 106.604 88.7262C106.185 88.5854 105.773 88.4378 105.361 88.2902C105.001 88.1632 104.637 88.0362 104.28 87.9058C103.865 87.7548 103.456 87.5969 103.044 87.439C102.701 87.3085 102.354 87.1815 102.015 87.0477C101.603 86.8829 101.198 86.7181 100.789 86.5534C100.46 86.4195 100.13 86.2891 99.8075 86.1518C99.4024 85.9802 99.0008 85.8051 98.6027 85.63C98.2903 85.4927 97.9745 85.3589 97.6656 85.2181C97.2606 85.0362 96.8624 84.8474 96.4642 84.6586C96.1725 84.5213 95.8738 84.3841 95.5855 84.2468C95.1839 84.0545 94.7892 83.852 94.3944 83.6564C94.1198 83.5156 93.8384 83.3818 93.5672 83.241C93.169 83.0351 92.7812 82.8223 92.3899 82.6129C92.1324 82.4721 91.8681 82.3348 91.6141 82.1941C91.2262 81.9779 90.8452 81.7582 90.4642 81.5385C90.2171 81.3978 89.9665 81.257 89.7228 81.1129C89.3418 80.8863 88.9711 80.6564 88.597 80.4264C88.367 80.2857 88.1301 80.1449 87.9036 80.0008C87.5329 79.7639 87.169 79.5236 86.8052 79.2868C86.5855 79.1426 86.3624 79.0019 86.1496 78.8543C85.7823 78.6072 85.4288 78.3532 85.0718 78.0992C84.8727 77.9584 84.6668 77.8211 84.4711 77.677C84.1141 77.4195 83.7674 77.1552 83.4173 76.8909C83.232 76.7502 83.0398 76.6129 82.8544 76.4687C82.4974 76.1907 82.1507 75.9058 81.804 75.6243C81.6427 75.4939 81.4745 75.3635 81.3132 75.233C80.9322 74.9138 80.5615 74.5911 80.1942 74.2685C80.0775 74.1655 79.9574 74.0694 79.8441 73.9664C79.367 73.5374 78.9002 73.1049 78.4471 72.6689H56.4894H51.9551C52.5729 73.2525 53.2011 73.8326 53.8464 74.4024C54.0729 74.6049 54.3098 74.8005 54.5432 74.9996C54.9654 75.3669 55.3807 75.7342 55.8132 76.0911C56.0775 76.3108 56.3555 76.5271 56.6233 76.7468C57.0317 77.0763 57.4333 77.4127 57.8521 77.7387C58.1439 77.9687 58.4459 78.1884 58.7411 78.4149C59.1462 78.7239 59.5478 79.0362 59.9631 79.3417C60.2651 79.5648 60.5809 79.7811 60.8864 80.0042C61.3052 80.3028 61.7171 80.6049 62.1427 80.9001C62.4722 81.1266 62.8086 81.3463 63.1416 81.5728C63.5569 81.8509 63.9654 82.1358 64.3876 82.4104C64.7446 82.6438 65.1118 82.8703 65.4722 83.1003C65.8807 83.3612 66.2857 83.622 66.6976 83.876C67.0684 84.106 67.4494 84.3257 67.8235 84.5522C68.2388 84.8028 68.6507 85.0534 69.0729 85.3005C69.4642 85.5271 69.8658 85.7468 70.264 85.9733C70.6793 86.2101 71.0912 86.447 71.51 86.677C71.9219 86.9001 72.3407 87.1198 72.756 87.3394C73.1748 87.5625 73.5901 87.7856 74.0123 88.0053C74.4414 88.2284 74.8773 88.4413 75.3098 88.6575C75.7285 88.8669 76.1439 89.0797 76.5661 89.2857C77.0192 89.5088 77.4825 89.7216 77.9425 89.9378C78.3544 90.13 78.7629 90.3291 79.1782 90.5179C79.6553 90.7376 80.1393 90.947 80.6198 91.1598C81.0283 91.3383 81.4333 91.5236 81.8452 91.7021C82.3464 91.9149 82.8544 92.1243 83.3624 92.3371C83.764 92.5053 84.1622 92.6735 84.5638 92.8383C85.0889 93.0511 85.6244 93.2571 86.153 93.463C86.5443 93.614 86.9356 93.7719 87.3338 93.923C87.8864 94.1323 88.4459 94.3349 89.0054 94.5408C89.3864 94.6781 89.7674 94.8223 90.1519 94.9596C90.732 95.1655 91.3224 95.3646 91.9093 95.5671C92.2766 95.6907 92.6439 95.8211 93.0146 95.9447C93.6256 96.1472 94.2434 96.3429 94.8578 96.5385C95.2148 96.6518 95.5649 96.7685 95.9253 96.8783C96.5569 97.074 97.1953 97.2628 97.8304 97.4481C98.1805 97.5511 98.5306 97.6609 98.8841 97.7605C99.5432 97.9527 100.206 98.1312 100.868 98.3097C101.205 98.4024 101.537 98.4985 101.877 98.5877C102.571 98.7731 103.267 98.9481 103.968 99.1232C104.283 99.2021 104.596 99.2845 104.912 99.3635C105.632 99.5385 106.36 99.7101 107.084 99.8749C107.386 99.9435 107.685 100.016 107.987 100.084C108.739 100.252 109.497 100.414 110.253 100.575C110.534 100.633 110.812 100.695 111.094 100.754C111.88 100.915 112.669 101.069 113.462 101.22C113.719 101.268 113.977 101.323 114.238 101.368C115.051 101.519 115.868 101.663 116.688 101.804C116.932 101.845 117.172 101.89 117.416 101.931C118.261 102.072 119.105 102.202 119.956 102.333C120.179 102.367 120.399 102.401 120.622 102.436C121.497 102.566 122.38 102.686 123.258 102.803C123.457 102.83 123.656 102.858 123.856 102.882C124.758 103.002 125.661 103.105 126.571 103.211C126.756 103.232 126.941 103.256 127.127 103.277C128.057 103.379 128.994 103.476 129.931 103.565C130.092 103.579 130.254 103.599 130.415 103.613C131.373 103.702 132.334 103.781 133.298 103.857C133.442 103.867 133.587 103.881 133.734 103.891C134.726 103.966 135.722 104.032 136.721 104.09C136.837 104.097 136.95 104.107 137.067 104.114C138.087 104.172 139.113 104.22 140.136 104.265C140.232 104.268 140.328 104.272 140.428 104.279C141.475 104.32 142.521 104.354 143.572 104.375C143.651 104.378 143.73 104.382 143.809 104.382C144.876 104.406 145.947 104.42 147.018 104.426C147.08 104.426 147.142 104.43 147.207 104.43C148.302 104.433 149.4 104.43 150.499 104.416C150.536 104.413 150.574 104.413 150.612 104.413C151.731 104.399 152.853 104.375 153.979 104.341C154 104.341 154.017 104.337 154.037 104.337C155.18 104.303 156.323 104.258 157.467 104.203C157.47 104.203 157.47 104.203 157.473 104.203C159.43 104.107 161.39 103.984 163.357 103.829C164.28 103.757 165.207 103.658 166.13 103.572C167.17 103.476 168.21 103.393 169.254 103.28C170.386 103.156 171.519 103.002 172.652 102.858C173.489 102.751 174.323 102.662 175.161 102.545C176.404 102.374 177.646 102.168 178.889 101.969C179.616 101.852 180.344 101.752 181.072 101.629C182.39 101.406 183.708 101.145 185.026 100.891C185.675 100.767 186.323 100.654 186.976 100.524C188.338 100.246 189.701 99.9367 191.064 99.6278C191.664 99.4939 192.269 99.3703 192.869 99.2262C194.27 98.8966 195.663 98.5328 197.06 98.1689C197.62 98.0214 198.179 97.8909 198.739 97.7399C200.163 97.3554 201.581 96.9367 202.999 96.5179C203.524 96.36 204.052 96.2193 204.578 96.058C206.012 95.6186 207.444 95.1484 208.872 94.6712C209.376 94.503 209.881 94.3486 210.382 94.177C211.82 93.6861 213.248 93.1609 214.679 92.6323C215.167 92.4538 215.658 92.2822 216.145 92.0969C217.576 91.5511 218.997 90.9779 220.418 90.3944C220.896 90.1987 221.376 90.0133 221.853 89.8143C223.267 89.2204 224.675 88.5923 226.075 87.9573C226.552 87.7445 227.029 87.5385 227.503 87.3188C228.893 86.677 230.27 86.0042 231.646 85.3211C232.127 85.0843 232.607 84.8577 233.084 84.614C234.444 83.9241 235.789 83.2067 237.135 82.479C237.619 82.2147 238.106 81.9641 238.59 81.6964C239.912 80.9653 241.223 80.1998 242.531 79.431C243.021 79.1392 243.519 78.8577 244.01 78.5625C245.294 77.7902 246.56 76.987 247.823 76.1735C248.664 75.6346 249.516 75.1129 250.35 74.5568C251.249 73.9596 252.138 73.352 253.031 72.7342C253.041 72.7273 253.055 72.717 253.065 72.7101C253.082 72.6998 253.099 72.6895 253.116 72.6758C248.211 74.8932 243.341 76.939 238.511 78.8131C208.36 90.511 179.881 95.5843 155.115 95.7696Z" fill="white"/>
<path d="M253.545 72.3803C253.511 72.3322 253.463 72.2876 253.408 72.2498C253.353 72.2155 253.295 72.1984 253.257 72.1881C253.185 72.1709 253.03 72.1709 252.927 72.2189C248.091 74.4054 243.186 76.4649 238.35 78.3425C210.316 89.2201 181.535 95.0725 155.112 95.2716C154.641 95.2784 154.161 95.2784 153.694 95.2784C121.247 95.2784 93.9548 86.9066 78.8175 72.3116C78.7248 72.2224 78.5944 72.1709 78.4673 72.1709H0.978801C0.779716 72.1709 0.601225 72.2842 0.518845 72.4627C0.436465 72.6411 0.470791 72.8505 0.608091 72.9981C16.1539 89.4466 35.7809 102.229 58.9468 110.982C78.3815 118.331 100.301 122.721 122.341 123.679C125.396 123.813 128.503 123.881 131.575 123.881C132.57 123.881 133.579 123.875 134.568 123.861C148.343 123.662 161.987 122.028 175.116 119.004C189.567 115.678 202.988 110.742 215.012 104.33C230.414 96.1194 243.371 85.5713 253.518 72.9775C253.521 72.9741 253.525 72.9707 253.525 72.9672C253.528 72.9638 253.531 72.9604 253.531 72.9569C253.569 72.902 253.597 72.8505 253.614 72.775H253.617C253.638 72.7064 253.638 72.6308 253.621 72.5519C253.607 72.4901 253.579 72.4318 253.545 72.3803ZM126.162 93.7201C126.495 93.7785 126.831 93.8334 127.168 93.8883C127.706 93.9741 128.249 94.0565 128.791 94.1389L128.836 94.1457C129.217 94.2041 129.598 94.259 129.982 94.3139C130.538 94.3929 131.101 94.4649 131.661 94.537C132.052 94.5885 132.447 94.64 132.841 94.6881C133.422 94.7601 134.005 94.8254 134.616 94.8906C134.994 94.9318 135.368 94.973 135.749 95.0141C136.346 95.0759 136.947 95.1343 137.551 95.1892L137.822 95.2132C138.117 95.2407 138.412 95.2681 138.708 95.2922C139.322 95.3437 139.947 95.3917 140.568 95.4398C140.949 95.4672 141.327 95.4947 141.708 95.5222C142.343 95.5668 142.985 95.6045 143.626 95.6389C144.004 95.6595 144.382 95.68 144.759 95.7006C145.411 95.7315 146.07 95.759 146.729 95.7865L147.007 95.7968C147.289 95.8071 147.574 95.8173 147.855 95.8276C148.525 95.8482 149.197 95.8654 149.88 95.8791C150.251 95.886 150.622 95.8929 150.996 95.8997C151.682 95.91 152.369 95.9169 153.059 95.9169L153.57 95.9203C154.082 95.9238 154.593 95.9238 155.112 95.9203C181.61 95.7212 210.478 89.8517 238.583 78.9432C243.237 77.1377 247.947 75.164 252.601 73.0702C242.575 85.3688 229.827 95.6938 214.696 103.76C191.952 115.88 163.494 122.79 134.558 123.212C133.157 123.229 131.747 123.243 130.308 123.219L129.574 123.209C129.025 123.205 128.475 123.202 127.923 123.191C125.812 123.154 124.047 123.102 122.366 123.03C93.766 121.784 40.068 113.594 1.33578 72.8128H78.3987C78.8278 73.2281 79.2843 73.6503 79.7545 74.0725C79.8129 74.124 79.8747 74.1789 79.9365 74.2304C79.9948 74.2785 80.0497 74.3265 80.1047 74.3746C80.4754 74.7006 80.8426 75.0233 81.2271 75.3425C81.3232 75.4215 81.4227 75.5004 81.5188 75.5794L81.869 75.8608C82.1676 76.1045 82.4628 76.3448 82.7717 76.5816C82.885 76.6709 83.0017 76.7567 83.1184 76.8425L83.5097 77.1377C83.8014 77.3574 84.0898 77.5771 84.3884 77.7933C84.512 77.8826 84.6424 77.9718 84.7694 78.061L85.1333 78.3151C85.4422 78.5347 85.7545 78.7544 86.0703 78.9707C86.2042 79.0633 86.3449 79.1526 86.4822 79.2418L86.8392 79.4752C87.1653 79.6915 87.4914 79.9077 87.8278 80.1171C87.9788 80.2132 88.1367 80.3093 88.2912 80.402L88.6653 80.632C88.9914 80.8345 89.3175 81.0336 89.6504 81.2327C89.8083 81.3254 89.9696 81.418 90.131 81.5107L90.6218 81.7922C90.9273 81.9672 91.2328 82.1423 91.5417 82.3174C91.7134 82.4135 91.8918 82.5061 92.0669 82.6022L92.5989 82.8871C92.8976 83.0485 93.1928 83.2098 93.4982 83.3643C93.6699 83.4535 93.8449 83.5393 94.02 83.6286L94.5829 83.91C94.8918 84.0645 95.2008 84.2224 95.5166 84.3734C95.7088 84.4661 95.9079 84.5588 96.1035 84.6514L96.5978 84.8814C96.9307 85.0393 97.2637 85.1938 97.6001 85.3482C97.7889 85.4306 97.9777 85.513 98.1664 85.5988L98.8564 85.9009C99.1516 86.0313 99.4468 86.1583 99.7454 86.2853C99.9582 86.3746 100.178 86.4638 100.394 86.553L101.022 86.807C101.331 86.9341 101.64 87.0576 101.956 87.1812C102.186 87.2704 102.416 87.3597 102.649 87.4455L103.161 87.6411C103.514 87.775 103.864 87.9089 104.221 88.0393C104.479 88.132 104.74 88.2247 105.001 88.3173L105.412 88.4615C105.79 88.5954 106.168 88.7292 106.549 88.8597C106.813 88.9489 107.081 89.0382 107.352 89.124L107.894 89.3025C108.237 89.4157 108.584 89.529 108.934 89.6389C109.219 89.7281 109.504 89.8139 109.792 89.9032L110.448 90.1022C110.757 90.1949 111.066 90.291 111.378 90.3803C111.704 90.473 112.034 90.5656 112.363 90.6583L112.658 90.7407C113.063 90.854 113.465 90.9672 113.877 91.0771C114.261 91.18 114.649 91.2762 115.037 91.3757L115.435 91.4787C115.765 91.5645 116.094 91.6469 116.431 91.7292C116.877 91.8391 117.323 91.9421 117.8 92.0519L118.041 92.1068C118.37 92.1858 118.7 92.2613 119.033 92.3368C119.499 92.4398 119.973 92.5393 120.474 92.6457L120.639 92.6801C120.989 92.7521 121.336 92.8276 121.689 92.8997C122.187 92.9993 122.688 93.0954 123.193 93.1915L123.447 93.2395C123.763 93.3013 124.078 93.3597 124.398 93.418C124.888 93.5073 125.383 93.5897 125.877 93.6755L126.162 93.7201Z" fill="#CACAC7"/>
</g>
<defs>
<clipPath id="clip0_643_11">
<rect width="254" height="124" fill="white"/>
</clipPath>
</defs>
</svg>
