<svg width="50" height="50" viewBox="0 0 50 50" fill="none" xmlns="http://www.w3.org/2000/svg">
<path d="M29.1745 24.5651L23.3255 21.8359C22.8151 21.599 22.3958 21.8646 22.3958 22.4297V27.5703C22.3958 28.1354 22.8151 28.401 23.3255 28.1641L29.1719 25.4349C29.6849 25.1953 29.6849 24.8047 29.1745 24.5651ZM25 0C11.1927 0 0 11.1927 0 25C0 38.8073 11.1927 50 25 50C38.8073 50 50 38.8073 50 25C50 11.1927 38.8073 0 25 0ZM25 35.1562C12.2031 35.1562 11.9792 34.0026 11.9792 25C11.9792 15.9974 12.2031 14.8437 25 14.8437C37.7969 14.8437 38.0208 15.9974 38.0208 25C38.0208 34.0026 37.7969 35.1562 25 35.1562Z" fill="black"/>
</svg>
